<?xml version="1.0" standalone="no"?>
<!DOCTYPE svg PUBLIC "-//W3C//DTD SVG 20010904//EN"
 "http://www.w3.org/TR/2001/REC-SVG-20010904/DTD/svg10.dtd">
<svg version="1.0" xmlns="http://www.w3.org/2000/svg"
 width="300.000000pt" height="300.000000pt" viewBox="0 0 300.000000 300.000000"
 preserveAspectRatio="xMidYMid meet">

<g transform="translate(0.000000,300.000000) scale(0.100000,-0.100000)"
fill="#000000" stroke="none">
<path d="M288 2749 c-43 -22 -78 -81 -78 -129 0 -41 24 -86 71 -133 21 -21 41
-47 44 -57 6 -20 136 -111 214 -150 49 -25 94 -66 313 -291 51 -52 110 -105
131 -118 20 -12 37 -27 37 -32 0 -5 21 -22 48 -38 26 -17 58 -39 72 -51 14
-11 63 -50 110 -86 48 -37 99 -86 118 -114 18 -27 40 -51 50 -54 9 -3 28 -23
41 -43 14 -21 33 -47 43 -58 10 -11 33 -39 51 -62 17 -23 50 -55 72 -72 22
-17 61 -51 87 -76 26 -25 52 -45 58 -45 10 0 223 -211 314 -311 l48 -54 -93
-6 c-52 -4 -276 -10 -499 -14 -459 -9 -461 -9 -500 -85 -39 -77 -13 -163 62
-201 42 -21 48 -22 388 -15 190 3 503 9 695 12 397 7 407 9 445 84 26 50 25
90 -1 142 -24 46 -34 166 -50 568 -20 514 -23 553 -42 587 -20 38 -82 73 -127
73 -50 0 -107 -35 -130 -81 -19 -37 -21 -52 -15 -212 3 -95 8 -261 10 -370 l6
-197 -63 63 c-35 35 -79 82 -99 103 -46 50 -128 126 -152 140 -59 34 -225 197
-270 266 -20 31 -45 59 -55 62 -9 3 -28 23 -42 43 -42 64 -136 150 -240 218
-25 17 -48 35 -52 41 -5 7 -28 24 -53 38 -25 15 -45 31 -45 36 0 5 -19 21 -41
36 -23 14 -79 65 -124 112 -82 85 -122 127 -138 140 -4 4 -27 27 -50 52 -44
47 -111 96 -177 130 -64 33 -129 80 -142 103 -17 33 -79 92 -115 111 -42 21
-89 20 -135 -5z"/>
</g>
</svg>
